# xmcd
# Track frame offsets:
# 150
# 28598
# 56207
# 78454
# 91650
# 109877
# 151941
# 168996
# 202612
# 218931
#
# Disc length: 3221 seconds
# Revision: 0
# Processed by: cddbd v1.5.2PL0 Copyright (c) Steve Scherf et al.
# Submitted via: VisiTrax 2.10.2.252 - For more info visit www.synapsa.com
#
DISCID=780c930a
DTITLE=Stranger blues - Caught in the act
DYEAR=2007
DGENRE=Blues
TTITLE0=Short wave radio
TTITLE1=Sweet home Chicago
TTITLE2=Stranger blues
TTITLE3=I loved another woman
TTITLE4=Stop Breakin´down
TTITLE5=Double trouble
TTITLE6=Tales of brave Ulysses
TTITLE7=Ain´t nobody´s business
TTITLE8=Rollin and Thumbling
TTITLE9=Kozmic blues
EXTD=
EXTT0=
EXTT1=
EXTT2=
EXTT3=
EXTT4=
EXTT5=
EXTT6=
EXTT7=
EXTT8=
EXTT9=
PLAYORDER=
